<?xml version="1.0" encoding="UTF-8"?>
<!DOCTYPE svg PUBLIC "-//W3C//DTD SVG 1.1//EN" "http://www.w3.org/Graphics/SVG/1.1/DTD/svg11.dtd">
<svg version="1.1" xmlns="http://www.w3.org/2000/svg" xmlns:xlink="http://www.w3.org/1999/xlink" x="0" y="0" width="200" height="70" viewBox="0, 0, 200, 70">
  <g id="Layer_1">
    <g id="psq_logo">
      <path d="M151.212,44.754 L151.212,23.723 L168.69,41.943 L168.69,23.974 L169.929,23.974 L169.929,44.991 L152.465,26.799 L152.465,44.754 L151.212,44.754 z M132.287,23.974 L133.748,23.974 L140.344,34.441 L146.954,23.974 L148.401,23.974 L140.97,35.777 L140.97,44.754 L139.732,44.754 L139.732,35.777 L132.287,23.974 z M130.074,27.648 L128.891,28.052 Q128.404,26.562 127.277,25.797 Q126.164,25.031 124.842,25.031 Q123.242,25.031 122.226,26.061 Q121.224,27.091 121.224,28.581 Q121.224,29.346 121.572,29.973 Q121.92,30.599 122.504,31.044 Q123.089,31.49 123.84,31.879 Q124.605,32.255 125.44,32.603 Q126.289,32.951 127.124,33.341 Q127.973,33.717 128.724,34.218 Q129.49,34.719 130.074,35.331 Q130.659,35.944 131.007,36.835 Q131.354,37.725 131.354,38.811 Q131.354,40.621 130.422,42.054 Q129.49,43.488 128.001,44.239 Q126.512,44.991 124.786,44.991 Q123.659,44.991 122.629,44.629 Q121.6,44.267 120.709,43.557 Q119.818,42.834 119.192,41.637 Q118.566,40.44 118.371,38.895 L119.61,38.741 Q119.958,41.247 121.391,42.486 Q122.838,43.711 124.786,43.711 Q126.164,43.711 127.361,43.14 Q128.557,42.555 129.323,41.414 Q130.102,40.259 130.102,38.769 Q130.102,37.837 129.754,37.085 Q129.406,36.333 128.822,35.818 Q128.237,35.304 127.472,34.872 Q126.721,34.441 125.872,34.093 Q125.037,33.731 124.188,33.369 Q123.353,33.007 122.588,32.561 Q121.836,32.116 121.252,31.587 Q120.667,31.058 120.319,30.293 Q119.972,29.513 119.972,28.553 Q119.972,26.549 121.335,25.143 Q122.699,23.723 124.842,23.723 Q126.512,23.723 127.973,24.767 Q129.448,25.797 130.074,27.648 z M100.309,24.628 Q102.257,23.793 104.4,23.793 Q106.543,23.793 108.491,24.628 Q110.453,25.463 111.859,26.883 Q113.278,28.302 114.113,30.265 Q114.948,32.227 114.948,34.385 Q114.948,36.542 114.113,38.505 Q113.278,40.453 111.859,41.873 Q110.453,43.293 108.491,44.128 Q106.543,44.963 104.4,44.963 Q102.257,44.963 100.309,44.128 Q98.36,43.293 96.955,41.873 Q95.55,40.453 94.715,38.505 Q93.88,36.542 93.88,34.385 Q93.88,32.227 94.715,30.265 Q95.55,28.302 96.955,26.883 Q98.36,25.463 100.309,24.628 z M95.118,34.385 Q95.118,36.278 95.842,38.004 Q96.579,39.73 97.818,40.982 Q99.056,42.235 100.782,42.987 Q102.507,43.724 104.4,43.724 Q106.306,43.724 108.032,42.987 Q109.757,42.235 110.996,40.982 Q112.234,39.73 112.972,38.004 Q113.709,36.278 113.709,34.385 Q113.709,31.838 112.471,29.694 Q111.232,27.537 109.076,26.284 Q106.933,25.031 104.4,25.031 Q101.867,25.031 99.724,26.284 Q97.595,27.537 96.357,29.694 Q95.118,31.838 95.118,34.385 z M91.333,23.974 L91.333,25.226 L85.948,25.226 L85.948,44.754 L84.695,44.754 L84.695,25.226 L79.296,25.226 L79.296,23.974 L91.333,23.974 z M62.124,24.628 Q64.072,23.793 66.215,23.793 Q68.358,23.793 70.306,24.628 Q72.269,25.463 73.674,26.883 Q75.093,28.302 75.928,30.265 Q76.763,32.227 76.763,34.385 Q76.763,36.542 75.928,38.505 Q75.093,40.453 73.674,41.873 Q72.269,43.293 70.306,44.128 Q68.358,44.963 66.215,44.963 Q64.072,44.963 62.124,44.128 Q60.176,43.293 58.77,41.873 Q57.365,40.453 56.53,38.505 Q55.695,36.542 55.695,34.385 Q55.695,32.227 56.53,30.265 Q57.365,28.302 58.77,26.883 Q60.176,25.463 62.124,24.628 z M56.934,34.385 Q56.934,36.278 57.657,38.004 Q58.395,39.73 59.633,40.982 Q60.872,42.235 62.597,42.987 Q64.323,43.724 66.215,43.724 Q68.122,43.724 69.847,42.987 Q71.573,42.235 72.811,40.982 Q74.05,39.73 74.787,38.004 Q75.525,36.278 75.525,34.385 Q75.525,31.838 74.286,29.694 Q73.048,27.537 70.891,26.284 Q68.748,25.031 66.215,25.031 Q63.683,25.031 61.54,26.284 Q59.411,27.537 58.172,29.694 Q56.934,31.838 56.934,34.385 z M50.449,23.974 L51.701,23.974 L51.701,44.754 L50.449,44.754 L50.449,33.313 L38.189,33.313 L38.189,44.754 L36.937,44.754 L36.937,23.974 L38.189,23.974 L38.189,32.06 L50.449,32.06 L50.449,23.974 z" fill="#30A453" id="path8669"/>
      <path d="M17.445,15.441 C15.737,15.444 14.1,16.13 12.899,17.345 C11.699,18.56 11.033,20.205 11.05,21.913 C11.049,22.069 11.132,22.214 11.268,22.292 C11.403,22.369 11.57,22.367 11.704,22.287 C11.837,22.207 11.918,22.061 11.913,21.905 C11.898,20.426 12.474,19.004 13.513,17.952 C14.552,16.9 15.968,16.307 17.446,16.304 C17.602,16.307 17.748,16.225 17.826,16.09 C17.905,15.956 17.905,15.789 17.826,15.654 C17.746,15.519 17.601,15.438 17.444,15.441 z M19.648,4.25 C19.631,4.25 19.614,4.25 19.597,4.252 C9.096,4.648 0.613,12.989 0.037,23.483 C0.018,23.75 0.145,24.005 0.367,24.152 C0.59,24.299 0.874,24.315 1.112,24.193 C1.349,24.071 1.503,23.831 1.513,23.564 C2.048,13.819 9.902,6.097 19.652,5.729 C20.054,5.719 20.374,5.39 20.373,4.988 C20.372,4.586 20.05,4.258 19.648,4.251 z M25.717,19.38 C23.116,19.363 20.627,20.03 18.365,21.948 C16.662,23.393 15.537,26.714 15.538,28.715 L15.538,44.752 L17.083,44.752 L17.083,34.2 L20.614,34.2 C26.086,34.2 30.701,31.132 32.483,26.125 C33.151,24.249 32.777,20.629 32.777,20.629 C30.391,19.942 28.011,19.395 25.717,19.38 z M25.348,20.759 C27.415,20.754 29.539,21.265 31.515,21.705 C31.515,21.705 31.548,24.666 30.932,26.125 C29.177,30.279 25.213,32.615 20.614,32.615 L17.111,32.615 L17.109,32.468 C17.247,32.018 17.426,31.463 17.654,30.848 C18.169,29.458 18.923,27.866 19.66,27.148 C20.229,26.594 21.035,26.05 21.961,25.548 C22.138,25.454 22.227,25.249 22.175,25.055 C22.123,24.86 21.943,24.728 21.742,24.735 C21.674,24.738 21.608,24.757 21.549,24.789 C20.58,25.315 19.713,25.89 19.056,26.53 C18.235,27.33 17.592,28.647 17.091,29.908 L17.083,28.828 C17.067,26.726 18.001,24.328 19.521,22.914 C21.269,21.286 23.279,20.764 25.347,20.759 z" fill="#30A453" id="path4795-9-1-9-4-0-1-7-3-9-0-2"/>
      <path d="M190.81,36.181 L192.783,36.181 L195.463,39.351 Q198.026,36.248 198.026,32.184 Q198.026,29.098 196.526,26.501 Q195.025,23.888 192.412,22.37 Q189.816,20.852 186.747,20.852 Q183.679,20.852 181.083,22.37 Q178.503,23.888 177.003,26.501 Q175.502,29.098 175.502,32.184 Q175.502,34.478 176.379,36.569 Q177.273,38.66 178.773,40.177 Q180.273,41.695 182.364,42.605 Q184.454,43.499 186.747,43.499 Q191.114,43.499 194.418,40.498 L190.81,36.181 z M199.965,44.747 L197.908,44.747 L195.345,41.695 Q193.609,43.263 191.4,44.14 Q189.192,45 186.747,45 Q184.151,45 181.791,43.988 Q179.431,42.976 177.728,41.256 Q176.025,39.536 175.013,37.176 Q174.002,34.798 174.002,32.184 Q174.002,29.57 175.013,27.193 Q176.025,24.815 177.728,23.095 Q179.431,21.375 181.791,20.363 Q184.151,19.351 186.747,19.351 Q189.344,19.351 191.704,20.363 Q194.081,21.375 195.784,23.095 Q197.503,24.815 198.515,27.193 Q199.527,29.57 199.527,32.184 Q199.527,36.973 196.408,40.565 L199.965,44.747 z" fill="#30A453" id="path3347"/>
    </g>
    <path d="M30.52,63.139 L30.52,54.549 L33.479,54.549 Q34.48,54.549 35.008,54.672 Q35.746,54.842 36.268,55.287 Q36.947,55.862 37.284,56.755 Q37.621,57.649 37.621,58.797 Q37.621,59.776 37.393,60.532 Q37.164,61.287 36.807,61.783 Q36.449,62.278 36.024,62.562 Q35.6,62.846 34.999,62.993 Q34.398,63.139 33.619,63.139 z M31.656,62.125 L33.49,62.125 Q34.34,62.125 34.823,61.967 Q35.307,61.809 35.594,61.522 Q35.998,61.118 36.224,60.435 Q36.449,59.752 36.449,58.78 Q36.449,57.432 36.007,56.708 Q35.564,55.985 34.932,55.739 Q34.475,55.563 33.461,55.563 L31.656,55.563 z" fill="#6A6A6A"/>
    <path d="M43.658,60.028 Q43.658,58.299 44.619,57.467 Q45.422,56.776 46.576,56.776 Q47.859,56.776 48.674,57.617 Q49.488,58.457 49.488,59.94 Q49.488,61.141 49.128,61.829 Q48.768,62.518 48.079,62.899 Q47.391,63.28 46.576,63.28 Q45.27,63.28 44.464,62.442 Q43.658,61.604 43.658,60.028 z M44.742,60.028 Q44.742,61.223 45.264,61.818 Q45.785,62.412 46.576,62.412 Q47.361,62.412 47.883,61.815 Q48.404,61.217 48.404,59.993 Q48.404,58.838 47.88,58.243 Q47.355,57.649 46.576,57.649 Q45.785,57.649 45.264,58.241 Q44.742,58.832 44.742,60.028 z" fill="#6A6A6A"/>
    <path d="M59.785,60.86 L60.822,60.994 Q60.652,62.067 59.952,62.673 Q59.252,63.28 58.232,63.28 Q56.955,63.28 56.179,62.445 Q55.402,61.61 55.402,60.051 Q55.402,59.043 55.736,58.287 Q56.07,57.532 56.753,57.154 Q57.436,56.776 58.238,56.776 Q59.252,56.776 59.896,57.288 Q60.541,57.801 60.723,58.744 L59.697,58.903 Q59.551,58.276 59.179,57.959 Q58.807,57.643 58.279,57.643 Q57.482,57.643 56.984,58.214 Q56.486,58.785 56.486,60.022 Q56.486,61.276 56.967,61.844 Q57.447,62.412 58.221,62.412 Q58.842,62.412 59.258,62.032 Q59.674,61.651 59.785,60.86 z" fill="#6A6A6A"/>
    <path d="M70.803,63.139 L70.803,62.225 Q70.076,63.28 68.828,63.28 Q68.277,63.28 67.8,63.069 Q67.322,62.858 67.091,62.538 Q66.859,62.219 66.766,61.756 Q66.701,61.446 66.701,60.772 L66.701,56.916 L67.756,56.916 L67.756,60.368 Q67.756,61.194 67.82,61.481 Q67.92,61.897 68.242,62.134 Q68.564,62.371 69.039,62.371 Q69.514,62.371 69.93,62.128 Q70.346,61.885 70.519,61.466 Q70.691,61.047 70.691,60.25 L70.691,56.916 L71.746,56.916 L71.746,63.139 z" fill="#6A6A6A"/>
    <path d="M78.398,63.139 L78.398,56.916 L79.342,56.916 L79.342,57.789 Q79.635,57.332 80.121,57.054 Q80.607,56.776 81.229,56.776 Q81.92,56.776 82.362,57.063 Q82.805,57.35 82.986,57.866 Q83.725,56.776 84.908,56.776 Q85.834,56.776 86.332,57.288 Q86.83,57.801 86.83,58.868 L86.83,63.139 L85.781,63.139 L85.781,59.219 Q85.781,58.586 85.679,58.308 Q85.576,58.03 85.307,57.86 Q85.037,57.69 84.674,57.69 Q84.018,57.69 83.584,58.126 Q83.15,58.563 83.15,59.524 L83.15,63.139 L82.096,63.139 L82.096,59.096 Q82.096,58.393 81.838,58.041 Q81.58,57.69 80.994,57.69 Q80.549,57.69 80.171,57.924 Q79.793,58.159 79.623,58.61 Q79.453,59.061 79.453,59.91 L79.453,63.139 z" fill="#6A6A6A"/>
    <path d="M97.654,61.135 L98.744,61.27 Q98.486,62.225 97.789,62.752 Q97.092,63.28 96.008,63.28 Q94.643,63.28 93.843,62.439 Q93.043,61.598 93.043,60.08 Q93.043,58.51 93.852,57.643 Q94.66,56.776 95.949,56.776 Q97.197,56.776 97.988,57.625 Q98.779,58.475 98.779,60.016 Q98.779,60.11 98.773,60.297 L94.133,60.297 Q94.191,61.323 94.713,61.868 Q95.234,62.412 96.014,62.412 Q96.594,62.412 97.004,62.108 Q97.414,61.803 97.654,61.135 z M94.191,59.43 L97.666,59.43 Q97.596,58.645 97.268,58.252 Q96.764,57.643 95.961,57.643 Q95.234,57.643 94.739,58.129 Q94.244,58.616 94.191,59.43 z" fill="#6A6A6A"/>
    <path d="M105.068,63.139 L105.068,56.916 L106.018,56.916 L106.018,57.801 Q106.703,56.776 107.998,56.776 Q108.561,56.776 109.032,56.978 Q109.504,57.18 109.738,57.508 Q109.973,57.836 110.066,58.287 Q110.125,58.58 110.125,59.313 L110.125,63.139 L109.07,63.139 L109.07,59.354 Q109.07,58.709 108.947,58.39 Q108.824,58.071 108.511,57.88 Q108.197,57.69 107.775,57.69 Q107.102,57.69 106.612,58.118 Q106.123,58.545 106.123,59.741 L106.123,63.139 z" fill="#6A6A6A"/>
    <path d="M119.045,62.196 L119.197,63.127 Q118.752,63.221 118.4,63.221 Q117.826,63.221 117.51,63.039 Q117.193,62.858 117.064,62.562 Q116.936,62.266 116.936,61.317 L116.936,57.737 L116.162,57.737 L116.162,56.916 L116.936,56.916 L116.936,55.375 L117.984,54.743 L117.984,56.916 L119.045,56.916 L119.045,57.737 L117.984,57.737 L117.984,61.375 Q117.984,61.826 118.04,61.955 Q118.096,62.084 118.222,62.16 Q118.348,62.237 118.582,62.237 Q118.758,62.237 119.045,62.196 z" fill="#6A6A6A"/>
    <path d="M129.137,62.371 Q128.551,62.869 128.009,63.075 Q127.467,63.28 126.846,63.28 Q125.82,63.28 125.27,62.779 Q124.719,62.278 124.719,61.498 Q124.719,61.041 124.927,60.663 Q125.135,60.285 125.472,60.057 Q125.809,59.828 126.23,59.711 Q126.541,59.629 127.168,59.553 Q128.445,59.401 129.049,59.19 Q129.055,58.973 129.055,58.914 Q129.055,58.27 128.756,58.006 Q128.352,57.649 127.555,57.649 Q126.811,57.649 126.456,57.91 Q126.102,58.17 125.932,58.832 L124.9,58.692 Q125.041,58.03 125.363,57.622 Q125.686,57.215 126.295,56.995 Q126.904,56.776 127.707,56.776 Q128.504,56.776 129.002,56.963 Q129.5,57.151 129.734,57.435 Q129.969,57.719 130.062,58.153 Q130.115,58.422 130.115,59.125 L130.115,60.532 Q130.115,62.002 130.183,62.392 Q130.25,62.782 130.449,63.139 L129.348,63.139 Q129.184,62.811 129.137,62.371 z M129.049,60.016 Q128.475,60.25 127.326,60.414 Q126.676,60.508 126.406,60.625 Q126.137,60.743 125.99,60.968 Q125.844,61.194 125.844,61.469 Q125.844,61.891 126.163,62.172 Q126.482,62.453 127.098,62.453 Q127.707,62.453 128.182,62.187 Q128.656,61.92 128.879,61.457 Q129.049,61.1 129.049,60.403 z" fill="#6A6A6A"/>
    <path d="M139.053,62.196 L139.205,63.127 Q138.76,63.221 138.408,63.221 Q137.834,63.221 137.518,63.039 Q137.201,62.858 137.072,62.562 Q136.943,62.266 136.943,61.317 L136.943,57.737 L136.17,57.737 L136.17,56.916 L136.943,56.916 L136.943,55.375 L137.992,54.743 L137.992,56.916 L139.053,56.916 L139.053,57.737 L137.992,57.737 L137.992,61.375 Q137.992,61.826 138.048,61.955 Q138.104,62.084 138.229,62.16 Q138.355,62.237 138.59,62.237 Q138.766,62.237 139.053,62.196 z" fill="#6A6A6A"/>
    <path d="M145.09,55.762 L145.09,54.549 L146.145,54.549 L146.145,55.762 z M145.09,63.139 L145.09,56.916 L146.145,56.916 L146.145,63.139 z" fill="#6A6A6A"/>
    <path d="M152.357,60.028 Q152.357,58.299 153.318,57.467 Q154.121,56.776 155.275,56.776 Q156.559,56.776 157.373,57.617 Q158.188,58.457 158.188,59.94 Q158.188,61.141 157.827,61.829 Q157.467,62.518 156.778,62.899 Q156.09,63.28 155.275,63.28 Q153.969,63.28 153.163,62.442 Q152.357,61.604 152.357,60.028 z M153.441,60.028 Q153.441,61.223 153.963,61.818 Q154.484,62.412 155.275,62.412 Q156.061,62.412 156.582,61.815 Q157.104,61.217 157.104,59.993 Q157.104,58.838 156.579,58.243 Q156.055,57.649 155.275,57.649 Q154.484,57.649 153.963,58.241 Q153.441,58.832 153.441,60.028 z" fill="#6A6A6A"/>
    <path d="M164.424,63.139 L164.424,56.916 L165.373,56.916 L165.373,57.801 Q166.059,56.776 167.354,56.776 Q167.916,56.776 168.388,56.978 Q168.859,57.18 169.094,57.508 Q169.328,57.836 169.422,58.287 Q169.48,58.58 169.48,59.313 L169.48,63.139 L168.426,63.139 L168.426,59.354 Q168.426,58.709 168.303,58.39 Q168.18,58.071 167.866,57.88 Q167.553,57.69 167.131,57.69 Q166.457,57.69 165.968,58.118 Q165.479,58.545 165.479,59.741 L165.479,63.139 z" fill="#6A6A6A"/>
  </g>
</svg>
